# xmcd
#
# Track frame offsets:
#	150
#	24876
#	41386
#	65393
#	77435
#	95013
#	114720
#	130145
#	145295
#	163135
#	193273
#	215660
#	233676
#	248563
#	279781
#
# Disc length: 4041 seconds
#
# Revision: 1
# Processed by: cddbd v1.5.2PL0 Copyright (c) Steve Scherf et al.
# Submitted via: EZCDAudioConverter 7.0.6.1
#
DISCID=c90fc70f
DTITLE=Various Artist - 290_2017: Best Of The Year
DYEAR=2018
DGENRE=
TTITLE0=The War On Drugs - Pain
TTITLE1=Songhoy Blues - Bamako
TTITLE2=Paul Weller - Satellite Kid
TTITLE3=Ghostpoet - Immigrant Boogie
TTITLE4=Sparks - Unaware
TTITLE5=Nadia Reid - Right On Time
TTITLE6=Hurray For The Riff Raff - Hungry Ghost
TTITLE7=Peter Perrett - An Epic Story
TTITLE8=This Is The Kit - Hotter Colder
TTITLE9=Endless Boogie - Back In '74
TTITLE10=Alice Coltrane - Er Ra
TTITLE11=Julie Byrne - Natural Blue
TTITLE12=Lal and Mike Waterson - Shady Lady
TTITLE13=Richard Dawson - Ogre
TTITLE14=Oumou Sangaré - Yere Faga
EXTD=
EXTT0=
EXTT1=
EXTT2=
EXTT3=
EXTT4=
EXTT5=
EXTT6=
EXTT7=
EXTT8=
EXTT9=
EXTT10=
EXTT11=
EXTT12=
EXTT13=
EXTT14=
PLAYORDER=
